<mxfile host="app.diagrams.net" modified="2024-04-19T08:34:07.767Z" agent="Mozilla/5.0 (Windows NT 10.0; Win64; x64) AppleWebKit/537.36 (KHTML, like Gecko) Chrome/123.0.0.0 Safari/537.36" etag="Gwl04qD7FGo098u6n3Wc" version="24.2.5" type="github">
  <diagram name="Page-1" id="97916047-d0de-89f5-080d-49f4d83e522f">
    <mxGraphModel dx="659" dy="824" grid="0" gridSize="10" guides="1" tooltips="1" connect="1" arrows="1" fold="1" page="0" pageScale="1.5" pageWidth="1169" pageHeight="827" background="none" math="0" shadow="0">
      <root>
        <mxCell id="0" />
        <mxCell id="1" parent="0" />
        <mxCell id="3dde4Ce0lxf_R7vCzBcz-161" value="" style="rounded=1;whiteSpace=wrap;html=1;" vertex="1" parent="1">
          <mxGeometry x="954" y="842" width="409" height="495" as="geometry" />
        </mxCell>
        <mxCell id="3dde4Ce0lxf_R7vCzBcz-182" value="" style="rounded=1;whiteSpace=wrap;html=1;" vertex="1" parent="1">
          <mxGeometry x="992.5" y="988" width="332" height="194" as="geometry" />
        </mxCell>
        <mxCell id="3dde4Ce0lxf_R7vCzBcz-90" value="" style="rounded=1;whiteSpace=wrap;html=1;dashed=1;" vertex="1" parent="1">
          <mxGeometry x="455" y="161" width="778" height="577" as="geometry" />
        </mxCell>
        <mxCell id="3dde4Ce0lxf_R7vCzBcz-69" value="&lt;div style=&quot;&quot;&gt;&lt;br&gt;&lt;/div&gt;" style="rounded=1;whiteSpace=wrap;html=1;strokeColor=#66FFFF;align=center;" vertex="1" parent="1">
          <mxGeometry x="507" y="184" width="368" height="180" as="geometry" />
        </mxCell>
        <mxCell id="3dde4Ce0lxf_R7vCzBcz-70" value="&lt;font face=&quot;Verdana&quot; style=&quot;font-size: 16px;&quot;&gt;&lt;b&gt;脚本创建模块&lt;/b&gt;&lt;/font&gt;" style="text;html=1;align=center;verticalAlign=middle;whiteSpace=wrap;rounded=0;" vertex="1" parent="1">
          <mxGeometry x="640" y="195" width="98" height="30" as="geometry" />
        </mxCell>
        <mxCell id="3dde4Ce0lxf_R7vCzBcz-71" value="&lt;b&gt;&lt;font style=&quot;font-size: 13px;&quot;&gt;scripts统一定义规范&lt;/font&gt;&lt;/b&gt;" style="rounded=1;whiteSpace=wrap;html=1;" vertex="1" parent="1">
          <mxGeometry x="540" y="264" width="120" height="60" as="geometry" />
        </mxCell>
        <mxCell id="3dde4Ce0lxf_R7vCzBcz-72" value="&lt;b&gt;compiled_unet重写编译&lt;/b&gt;" style="rounded=1;whiteSpace=wrap;html=1;" vertex="1" parent="1">
          <mxGeometry x="728" y="266" width="120" height="60" as="geometry" />
        </mxCell>
        <mxCell id="3dde4Ce0lxf_R7vCzBcz-73" style="edgeStyle=orthogonalEdgeStyle;rounded=0;orthogonalLoop=1;jettySize=auto;html=1;exitX=0.5;exitY=1;exitDx=0;exitDy=0;" edge="1" parent="1" source="3dde4Ce0lxf_R7vCzBcz-69" target="3dde4Ce0lxf_R7vCzBcz-69">
          <mxGeometry relative="1" as="geometry" />
        </mxCell>
        <mxCell id="3dde4Ce0lxf_R7vCzBcz-74" value="" style="rounded=1;whiteSpace=wrap;html=1;strokeColor=#FF0000;" vertex="1" parent="1">
          <mxGeometry x="509" y="406" width="367" height="146" as="geometry" />
        </mxCell>
        <mxCell id="3dde4Ce0lxf_R7vCzBcz-75" value="&lt;font style=&quot;font-size: 15px;&quot;&gt;&lt;b&gt;OneDiff加速模块&lt;/b&gt;&lt;/font&gt;" style="text;html=1;align=center;verticalAlign=middle;whiteSpace=wrap;rounded=0;" vertex="1" parent="1">
          <mxGeometry x="631" y="418" width="122" height="30" as="geometry" />
        </mxCell>
        <mxCell id="3dde4Ce0lxf_R7vCzBcz-76" value="&lt;span style=&quot;font-size: 13px;&quot;&gt;&lt;b&gt;创建编译算子&lt;/b&gt;&lt;/span&gt;" style="rounded=1;whiteSpace=wrap;html=1;" vertex="1" parent="1">
          <mxGeometry x="526" y="469" width="91" height="60" as="geometry" />
        </mxCell>
        <mxCell id="3dde4Ce0lxf_R7vCzBcz-77" value="&lt;b&gt;创建量化编译算子&lt;/b&gt;" style="rounded=1;whiteSpace=wrap;html=1;" vertex="1" parent="1">
          <mxGeometry x="641" y="469" width="104" height="60" as="geometry" />
        </mxCell>
        <mxCell id="3dde4Ce0lxf_R7vCzBcz-78" value="&lt;b&gt;编译模块调度&lt;/b&gt;" style="rounded=1;whiteSpace=wrap;html=1;" vertex="1" parent="1">
          <mxGeometry x="765" y="469" width="101" height="60" as="geometry" />
        </mxCell>
        <mxCell id="3dde4Ce0lxf_R7vCzBcz-80" value="&lt;span style=&quot;color: rgba(0, 0, 0, 0); font-family: monospace; font-size: 0px; text-align: start; text-wrap: nowrap;&quot;&gt;%3CmxGraphModel%3E%3Croot%3E%3CmxCell%20id%3D%220%22%2F%3E%3CmxCell%20id%3D%221%22%20parent%3D%220%22%2F%3E%3CmxCell%20id%3D%222%22%20value%3D%22%26lt%3Bfont%20face%3D%26quot%3BVerdana%26quot%3B%20style%3D%26quot%3Bfont-size%3A%2016px%3B%26quot%3B%26gt%3B%26lt%3Bb%26gt%3B%E8%84%9A%E6%9C%AC%E5%88%9B%E5%BB%BA%E6%A8%A1%E5%9D%97%26lt%3B%2Fb%26gt%3B%26lt%3B%2Ffont%26gt%3B%22%20style%3D%22text%3Bhtml%3D1%3Balign%3Dcenter%3BverticalAlign%3Dmiddle%3BwhiteSpace%3Dwrap%3Brounded%3D0%3B%22%20vertex%3D%221%22%20parent%3D%221%22%3E%3CmxGeometry%20x%3D%22640%22%20y%3D%22195%22%20width%3D%2298%22%20height%3D%2230%22%20as%3D%22geometry%22%2F%3E%3C%2FmxCell%3E%3C%2Froot%3E%3C%2FmxGraphModel%3E&lt;/span&gt;" style="rounded=1;whiteSpace=wrap;html=1;strokeColor=#00FF00;" vertex="1" parent="1">
          <mxGeometry x="511" y="611" width="362" height="110" as="geometry" />
        </mxCell>
        <mxCell id="3dde4Ce0lxf_R7vCzBcz-81" value="&lt;font face=&quot;Verdana&quot;&gt;&lt;span style=&quot;font-size: 16px;&quot;&gt;&lt;b&gt;基础支持模块&lt;/b&gt;&lt;/span&gt;&lt;/font&gt;" style="text;html=1;align=center;verticalAlign=middle;whiteSpace=wrap;rounded=0;" vertex="1" parent="1">
          <mxGeometry x="636" y="616" width="98" height="30" as="geometry" />
        </mxCell>
        <mxCell id="3dde4Ce0lxf_R7vCzBcz-82" value="&lt;b&gt;OneDiff&lt;/b&gt;" style="rounded=1;whiteSpace=wrap;html=1;" vertex="1" parent="1">
          <mxGeometry x="537" y="657" width="80" height="60" as="geometry" />
        </mxCell>
        <mxCell id="3dde4Ce0lxf_R7vCzBcz-83" value="&lt;b&gt;OneDiff Enterprise&lt;/b&gt;" style="rounded=1;whiteSpace=wrap;html=1;" vertex="1" parent="1">
          <mxGeometry x="637" y="656" width="116" height="60" as="geometry" />
        </mxCell>
        <mxCell id="3dde4Ce0lxf_R7vCzBcz-84" value="&lt;b&gt;Pytorch&lt;/b&gt;" style="rounded=1;whiteSpace=wrap;html=1;" vertex="1" parent="1">
          <mxGeometry x="767" y="657" width="92" height="60" as="geometry" />
        </mxCell>
        <mxCell id="3dde4Ce0lxf_R7vCzBcz-85" value="" style="rounded=1;whiteSpace=wrap;html=1;strokeColor=#00CC00;fillColor=#CCFFCC;" vertex="1" parent="1">
          <mxGeometry x="914" y="184" width="90" height="529" as="geometry" />
        </mxCell>
        <mxCell id="3dde4Ce0lxf_R7vCzBcz-87" value="&lt;font face=&quot;Verdana&quot;&gt;&lt;span style=&quot;font-size: 16px;&quot;&gt;&lt;b&gt;单元测试&lt;/b&gt;&lt;/span&gt;&lt;/font&gt;" style="text;html=1;align=center;verticalAlign=middle;whiteSpace=wrap;rounded=0;" vertex="1" parent="1">
          <mxGeometry x="911" y="457" width="98" height="30" as="geometry" />
        </mxCell>
        <mxCell id="3dde4Ce0lxf_R7vCzBcz-88" value="" style="rounded=1;whiteSpace=wrap;html=1;strokeColor=#FF3333;fillColor=#FFCCCC;" vertex="1" parent="1">
          <mxGeometry x="1042" y="187" width="90" height="529" as="geometry" />
        </mxCell>
        <mxCell id="3dde4Ce0lxf_R7vCzBcz-89" value="&lt;font face=&quot;Verdana&quot;&gt;&lt;span style=&quot;font-size: 16px;&quot;&gt;&lt;b&gt;集成测试&lt;/b&gt;&lt;/span&gt;&lt;/font&gt;" style="text;html=1;align=center;verticalAlign=middle;whiteSpace=wrap;rounded=0;" vertex="1" parent="1">
          <mxGeometry x="1042" y="458" width="98" height="30" as="geometry" />
        </mxCell>
        <mxCell id="3dde4Ce0lxf_R7vCzBcz-135" value="" style="rounded=1;whiteSpace=wrap;html=1;" vertex="1" parent="1">
          <mxGeometry x="559.5" y="960" width="283" height="349" as="geometry" />
        </mxCell>
        <mxCell id="3dde4Ce0lxf_R7vCzBcz-138" value="&lt;b&gt;&lt;font style=&quot;font-size: 13px;&quot;&gt;scripts统一定义规范&lt;/font&gt;&lt;/b&gt;" style="text;html=1;align=center;verticalAlign=middle;whiteSpace=wrap;rounded=0;" vertex="1" parent="1">
          <mxGeometry x="633" y="971" width="123" height="30" as="geometry" />
        </mxCell>
        <mxCell id="3dde4Ce0lxf_R7vCzBcz-141" value="" style="rounded=0;whiteSpace=wrap;html=1;" vertex="1" parent="1">
          <mxGeometry x="599" y="1012" width="199" height="266" as="geometry" />
        </mxCell>
        <mxCell id="3dde4Ce0lxf_R7vCzBcz-146" value="title" style="text;html=1;align=center;verticalAlign=middle;whiteSpace=wrap;rounded=0;" vertex="1" parent="1">
          <mxGeometry x="668" y="1019" width="60" height="30" as="geometry" />
        </mxCell>
        <mxCell id="3dde4Ce0lxf_R7vCzBcz-149" value="ui" style="text;html=1;align=center;verticalAlign=middle;whiteSpace=wrap;rounded=0;" vertex="1" parent="1">
          <mxGeometry x="665" y="1092" width="60" height="30" as="geometry" />
        </mxCell>
        <mxCell id="3dde4Ce0lxf_R7vCzBcz-150" value="show" style="text;html=1;align=center;verticalAlign=middle;whiteSpace=wrap;rounded=0;" vertex="1" parent="1">
          <mxGeometry x="664" y="1144" width="60" height="30" as="geometry" />
        </mxCell>
        <mxCell id="3dde4Ce0lxf_R7vCzBcz-153" value="check_model_structure_change" style="text;html=1;align=center;verticalAlign=middle;whiteSpace=wrap;rounded=0;" vertex="1" parent="1">
          <mxGeometry x="649" y="1146" width="104" height="123" as="geometry" />
        </mxCell>
        <mxCell id="3dde4Ce0lxf_R7vCzBcz-155" value="" style="endArrow=none;html=1;rounded=0;exitX=0;exitY=0.25;exitDx=0;exitDy=0;entryX=1;entryY=0.25;entryDx=0;entryDy=0;" edge="1" parent="1" source="3dde4Ce0lxf_R7vCzBcz-141" target="3dde4Ce0lxf_R7vCzBcz-141">
          <mxGeometry width="50" height="50" relative="1" as="geometry">
            <mxPoint x="888" y="991" as="sourcePoint" />
            <mxPoint x="938" y="941" as="targetPoint" />
          </mxGeometry>
        </mxCell>
        <mxCell id="3dde4Ce0lxf_R7vCzBcz-156" value="run" style="text;html=1;align=center;verticalAlign=middle;whiteSpace=wrap;rounded=0;" vertex="1" parent="1">
          <mxGeometry x="666" y="1246" width="60" height="30" as="geometry" />
        </mxCell>
        <mxCell id="3dde4Ce0lxf_R7vCzBcz-157" value="" style="endArrow=none;html=1;rounded=0;exitX=-0.01;exitY=0.443;exitDx=0;exitDy=0;exitPerimeter=0;entryX=1.008;entryY=0.446;entryDx=0;entryDy=0;entryPerimeter=0;" edge="1" parent="1" source="3dde4Ce0lxf_R7vCzBcz-141" target="3dde4Ce0lxf_R7vCzBcz-141">
          <mxGeometry width="50" height="50" relative="1" as="geometry">
            <mxPoint x="941" y="991" as="sourcePoint" />
            <mxPoint x="991" y="941" as="targetPoint" />
          </mxGeometry>
        </mxCell>
        <mxCell id="3dde4Ce0lxf_R7vCzBcz-158" value="" style="endArrow=none;html=1;rounded=0;entryX=1.008;entryY=0.653;entryDx=0;entryDy=0;entryPerimeter=0;" edge="1" parent="1" target="3dde4Ce0lxf_R7vCzBcz-141">
          <mxGeometry width="50" height="50" relative="1" as="geometry">
            <mxPoint x="601" y="1186" as="sourcePoint" />
            <mxPoint x="991" y="941" as="targetPoint" />
          </mxGeometry>
        </mxCell>
        <mxCell id="3dde4Ce0lxf_R7vCzBcz-159" value="" style="endArrow=none;html=1;rounded=0;exitX=-0.006;exitY=0.86;exitDx=0;exitDy=0;exitPerimeter=0;" edge="1" parent="1" source="3dde4Ce0lxf_R7vCzBcz-141">
          <mxGeometry width="50" height="50" relative="1" as="geometry">
            <mxPoint x="941" y="991" as="sourcePoint" />
            <mxPoint x="795" y="1241" as="targetPoint" />
          </mxGeometry>
        </mxCell>
        <mxCell id="3dde4Ce0lxf_R7vCzBcz-162" value="&lt;b&gt;compiled_unet重写编译&lt;/b&gt;" style="text;html=1;align=center;verticalAlign=middle;whiteSpace=wrap;rounded=0;" vertex="1" parent="1">
          <mxGeometry x="1056" y="864" width="217" height="30" as="geometry" />
        </mxCell>
        <mxCell id="3dde4Ce0lxf_R7vCzBcz-171" value="GroupNorm32Oflow" style="text;html=1;align=center;verticalAlign=middle;whiteSpace=wrap;rounded=0;" vertex="1" parent="1">
          <mxGeometry x="1119" y="1049" width="60" height="30" as="geometry" />
        </mxCell>
        <mxCell id="3dde4Ce0lxf_R7vCzBcz-172" value="SpatialTransformerOflow" style="text;html=1;align=center;verticalAlign=middle;whiteSpace=wrap;rounded=0;" vertex="1" parent="1">
          <mxGeometry x="1125" y="1089" width="60" height="30" as="geometry" />
        </mxCell>
        <mxCell id="3dde4Ce0lxf_R7vCzBcz-174" value="UNetModelOflow" style="text;html=1;align=center;verticalAlign=middle;whiteSpace=wrap;rounded=0;" vertex="1" parent="1">
          <mxGeometry x="1115.5" y="1134" width="60" height="30" as="geometry" />
        </mxCell>
        <mxCell id="3dde4Ce0lxf_R7vCzBcz-179" value="" style="rounded=1;whiteSpace=wrap;html=1;" vertex="1" parent="1">
          <mxGeometry x="1089" y="894" width="120" height="60" as="geometry" />
        </mxCell>
        <mxCell id="3dde4Ce0lxf_R7vCzBcz-180" value="ldm、sgm" style="text;html=1;align=center;verticalAlign=middle;whiteSpace=wrap;rounded=0;" vertex="1" parent="1">
          <mxGeometry x="1119" y="903" width="60" height="30" as="geometry" />
        </mxCell>
        <mxCell id="3dde4Ce0lxf_R7vCzBcz-181" value="CrossAttentionOflow" style="text;html=1;align=center;verticalAlign=middle;whiteSpace=wrap;rounded=0;" vertex="1" parent="1">
          <mxGeometry x="1119" y="1009" width="60" height="30" as="geometry" />
        </mxCell>
        <mxCell id="3dde4Ce0lxf_R7vCzBcz-185" value="" style="endArrow=classic;html=1;rounded=0;exitX=0.5;exitY=1;exitDx=0;exitDy=0;entryX=0.471;entryY=-0.016;entryDx=0;entryDy=0;entryPerimeter=0;" edge="1" parent="1" source="3dde4Ce0lxf_R7vCzBcz-179" target="3dde4Ce0lxf_R7vCzBcz-182">
          <mxGeometry width="50" height="50" relative="1" as="geometry">
            <mxPoint x="919" y="1309" as="sourcePoint" />
            <mxPoint x="969" y="1259" as="targetPoint" />
          </mxGeometry>
        </mxCell>
        <mxCell id="3dde4Ce0lxf_R7vCzBcz-188" value="" style="endArrow=classic;html=1;rounded=0;exitX=0.5;exitY=1;exitDx=0;exitDy=0;" edge="1" parent="1" source="3dde4Ce0lxf_R7vCzBcz-182" target="3dde4Ce0lxf_R7vCzBcz-189">
          <mxGeometry width="50" height="50" relative="1" as="geometry">
            <mxPoint x="941" y="1096" as="sourcePoint" />
            <mxPoint x="991" y="1046" as="targetPoint" />
          </mxGeometry>
        </mxCell>
        <mxCell id="3dde4Ce0lxf_R7vCzBcz-189" value="" style="rounded=1;whiteSpace=wrap;html=1;" vertex="1" parent="1">
          <mxGeometry x="1017" y="1236" width="282" height="60" as="geometry" />
        </mxCell>
        <mxCell id="3dde4Ce0lxf_R7vCzBcz-191" value="compile_sgm_unet" style="text;html=1;align=center;verticalAlign=middle;whiteSpace=wrap;rounded=0;" vertex="1" parent="1">
          <mxGeometry x="1009" y="1251" width="154" height="30" as="geometry" />
        </mxCell>
        <mxCell id="3dde4Ce0lxf_R7vCzBcz-192" value="compile_ldm_unet" style="text;html=1;align=center;verticalAlign=middle;whiteSpace=wrap;rounded=0;" vertex="1" parent="1">
          <mxGeometry x="1196" y="1251" width="60" height="30" as="geometry" />
        </mxCell>
        <mxCell id="3dde4Ce0lxf_R7vCzBcz-193" value="" style="rounded=1;whiteSpace=wrap;html=1;" vertex="1" parent="1">
          <mxGeometry x="778" y="1549" width="337" height="368" as="geometry" />
        </mxCell>
        <mxCell id="3dde4Ce0lxf_R7vCzBcz-194" value="&lt;b style=&quot;&quot;&gt;&lt;font style=&quot;font-size: 16px;&quot;&gt;创建编译算子&lt;/font&gt;&lt;/b&gt;" style="text;html=1;align=center;verticalAlign=middle;whiteSpace=wrap;rounded=0;" vertex="1" parent="1">
          <mxGeometry x="866" y="1564" width="160" height="30" as="geometry" />
        </mxCell>
        <mxCell id="3dde4Ce0lxf_R7vCzBcz-195" value="" style="rounded=1;whiteSpace=wrap;html=1;" vertex="1" parent="1">
          <mxGeometry x="813" y="1618" width="276" height="60" as="geometry" />
        </mxCell>
        <mxCell id="3dde4Ce0lxf_R7vCzBcz-196" value="" style="rounded=1;whiteSpace=wrap;html=1;" vertex="1" parent="1">
          <mxGeometry x="813" y="1698" width="279" height="60" as="geometry" />
        </mxCell>
        <mxCell id="3dde4Ce0lxf_R7vCzBcz-197" value="" style="rounded=1;whiteSpace=wrap;html=1;" vertex="1" parent="1">
          <mxGeometry x="813" y="1789" width="279" height="60" as="geometry" />
        </mxCell>
        <mxCell id="3dde4Ce0lxf_R7vCzBcz-198" value="compile_sgm_unet" style="text;html=1;align=center;verticalAlign=middle;whiteSpace=wrap;rounded=0;" vertex="1" parent="1">
          <mxGeometry x="899" y="1710" width="103" height="30" as="geometry" />
        </mxCell>
        <mxCell id="3dde4Ce0lxf_R7vCzBcz-199" value="compile_ldm_unet" style="text;html=1;align=center;verticalAlign=middle;whiteSpace=wrap;rounded=0;" vertex="1" parent="1">
          <mxGeometry x="898" y="1633" width="103" height="30" as="geometry" />
        </mxCell>
        <mxCell id="3dde4Ce0lxf_R7vCzBcz-200" value="quantization" style="text;html=1;align=center;verticalAlign=middle;whiteSpace=wrap;rounded=0;" vertex="1" parent="1">
          <mxGeometry x="914" y="1804" width="60" height="30" as="geometry" />
        </mxCell>
      </root>
    </mxGraphModel>
  </diagram>
</mxfile>
